<mxfile host="app.diagrams.net" agent="Mozilla/5.0 (Macintosh; Intel Mac OS X 10_15_7) AppleWebKit/537.36 (KHTML, like Gecko) Chrome/131.0.0.0 Safari/537.36" version="24.8.6">
  <diagram name="Página-1" id="mvNSWt8Akcy6Hby3_a7I">
    <mxGraphModel dx="1247" dy="597" grid="1" gridSize="10" guides="1" tooltips="1" connect="1" arrows="1" fold="1" page="1" pageScale="1" pageWidth="827" pageHeight="1169" math="0" shadow="0">
      <root>
        <mxCell id="0" />
        <mxCell id="1" parent="0" />
        <mxCell id="bvtHxkWZJLvmCeJsqBvC-3" value="WSL&lt;div&gt;comandos basicos de linux&lt;br&gt;&lt;br&gt;&lt;br&gt;&lt;br&gt;&lt;br&gt;&lt;br&gt;&lt;br&gt;&lt;br&gt;&lt;br&gt;&lt;br&gt;&lt;br&gt;&lt;br&gt;&lt;br&gt;&lt;br&gt;&lt;br&gt;&lt;br&gt;&lt;br&gt;&lt;br&gt;&lt;br&gt;&lt;br&gt;&lt;br&gt;&lt;/div&gt;" style="rounded=0;whiteSpace=wrap;html=1;align=left;" vertex="1" parent="1">
          <mxGeometry x="170" y="250" width="770" height="330" as="geometry" />
        </mxCell>
        <mxCell id="bvtHxkWZJLvmCeJsqBvC-4" style="edgeStyle=orthogonalEdgeStyle;rounded=0;orthogonalLoop=1;jettySize=auto;html=1;" edge="1" parent="1" source="bvtHxkWZJLvmCeJsqBvC-1" target="bvtHxkWZJLvmCeJsqBvC-2">
          <mxGeometry relative="1" as="geometry" />
        </mxCell>
        <mxCell id="bvtHxkWZJLvmCeJsqBvC-5" value="Requests" style="edgeLabel;html=1;align=center;verticalAlign=middle;resizable=0;points=[];" vertex="1" connectable="0" parent="bvtHxkWZJLvmCeJsqBvC-4">
          <mxGeometry x="-0.1667" y="1" relative="1" as="geometry">
            <mxPoint as="offset" />
          </mxGeometry>
        </mxCell>
        <mxCell id="bvtHxkWZJLvmCeJsqBvC-1" value="Pyhon.&lt;div&gt;&lt;span style=&quot;background-color: initial;&quot;&gt;Requests (HTTPS (handshake)&lt;/span&gt;&lt;/div&gt;&lt;div&gt;&lt;span style=&quot;background-color: initial;&quot;&gt;&amp;nbsp;JSON (Serialization)&lt;/span&gt;&lt;/div&gt;&lt;div&gt;&lt;div&gt;Pandas (1.X numpy, 2.X pyarrow (Apache Arrow)) BenchMarking&amp;nbsp;&lt;/div&gt;&lt;div&gt;(Si estas haciendo FOR en pandas estás haciendolo mal)&lt;/div&gt;&lt;/div&gt;&lt;div&gt;SQLAlchemy&lt;/div&gt;" style="whiteSpace=wrap;html=1;aspect=fixed;" vertex="1" parent="1">
          <mxGeometry x="250" y="340" width="160" height="160" as="geometry" />
        </mxCell>
        <mxCell id="bvtHxkWZJLvmCeJsqBvC-8" style="edgeStyle=orthogonalEdgeStyle;rounded=0;orthogonalLoop=1;jettySize=auto;html=1;" edge="1" parent="1" source="bvtHxkWZJLvmCeJsqBvC-2" target="bvtHxkWZJLvmCeJsqBvC-7">
          <mxGeometry relative="1" as="geometry" />
        </mxCell>
        <mxCell id="bvtHxkWZJLvmCeJsqBvC-9" style="edgeStyle=orthogonalEdgeStyle;rounded=0;orthogonalLoop=1;jettySize=auto;html=1;" edge="1" parent="1" source="bvtHxkWZJLvmCeJsqBvC-2" target="bvtHxkWZJLvmCeJsqBvC-7">
          <mxGeometry relative="1" as="geometry" />
        </mxCell>
        <mxCell id="bvtHxkWZJLvmCeJsqBvC-10" value="Pandas" style="edgeLabel;html=1;align=center;verticalAlign=middle;resizable=0;points=[];" vertex="1" connectable="0" parent="bvtHxkWZJLvmCeJsqBvC-9">
          <mxGeometry x="-0.2917" relative="1" as="geometry">
            <mxPoint as="offset" />
          </mxGeometry>
        </mxCell>
        <mxCell id="bvtHxkWZJLvmCeJsqBvC-2" value="API. Spotify.&lt;div&gt;cURL -&amp;gt; PySpotify.&lt;/div&gt;&lt;div&gt;Explore endpoints.&lt;/div&gt;&lt;div&gt;3 Questions.&amp;nbsp;&lt;/div&gt;&lt;div&gt;&lt;br&gt;&lt;/div&gt;" style="whiteSpace=wrap;html=1;aspect=fixed;" vertex="1" parent="1">
          <mxGeometry x="500" y="340" width="160" height="160" as="geometry" />
        </mxCell>
        <mxCell id="bvtHxkWZJLvmCeJsqBvC-7" value="&lt;div&gt;PosgreSQL -&amp;gt; WSL | Docker&lt;/div&gt;&lt;div&gt;3 Answers. SELECT (CASE), GROUP BY, ORDER BY,&amp;nbsp;&lt;/div&gt;&lt;div&gt;ANALYTICAL FUNCTION. (Window funcitons)&lt;/div&gt;" style="whiteSpace=wrap;html=1;aspect=fixed;" vertex="1" parent="1">
          <mxGeometry x="740" y="340" width="160" height="160" as="geometry" />
        </mxCell>
      </root>
    </mxGraphModel>
  </diagram>
</mxfile>
